<svg xmlns="http://www.w3.org/2000/svg" xmlns:xlink="http://www.w3.org/1999/xlink" preserveAspectRatio="xMidYMid" width="28" height="28" viewBox="0 0 28 28">
  <defs>
    <style>

      .cls-2 {
        fill: #ffffff;
      }
    </style>
  </defs>
  <path d="M14.000,27.987 C6.275,27.987 0.013,21.725 0.013,14.000 C0.013,6.275 6.275,0.012 14.000,0.012 C21.725,0.012 27.987,6.275 27.987,14.000 C27.987,21.725 21.725,27.987 14.000,27.987 ZM14.000,1.229 C6.947,1.229 1.229,6.947 1.229,14.000 C1.229,21.053 6.947,26.771 14.000,26.771 C21.053,26.771 26.771,21.053 26.771,14.000 C26.771,6.947 21.053,1.229 14.000,1.229 ZM25.263,16.548 C25.033,16.216 24.822,15.868 24.622,15.528 C23.840,14.199 23.292,13.392 22.273,13.392 C21.255,13.392 20.707,14.199 19.925,15.528 C19.173,16.807 18.321,18.257 16.552,18.257 C14.783,18.257 13.932,16.807 13.180,15.528 C12.399,14.199 11.851,13.392 10.834,13.392 C9.816,13.392 9.268,14.199 8.486,15.529 C7.734,16.807 6.883,18.257 5.114,18.257 C4.148,18.257 3.460,17.818 2.908,17.217 C2.648,16.318 2.499,15.374 2.465,14.399 C2.569,14.568 2.670,14.737 2.768,14.904 C3.549,16.233 4.097,17.041 5.114,17.041 C6.132,17.041 6.680,16.233 7.461,14.904 C8.213,13.625 9.065,12.175 10.834,12.175 C12.602,12.175 13.454,13.625 14.206,14.904 C14.987,16.233 15.534,17.041 16.552,17.041 C17.570,17.041 18.118,16.233 18.900,14.904 C19.652,13.625 20.504,12.175 22.273,12.175 C23.945,12.175 24.797,13.469 25.520,14.690 C25.482,15.325 25.399,15.946 25.263,16.548 Z" id="path-1" class="cls-2" fill-rule="evenodd"/>
</svg>
