<svg xmlns="http://www.w3.org/2000/svg" xmlns:xlink="http://www.w3.org/1999/xlink" preserveAspectRatio="xMidYMid" width="28" height="24" viewBox="0 0 28 24">
  <defs>
    <style>

      .cls-2 {
        fill: #ffffff;
      }
    </style>
  </defs>
  <path d="M14.015,24.000 C14.015,24.000 0.011,18.002 0.011,8.523 C0.011,3.000 3.397,0.000 6.976,0.000 C6.976,0.000 6.976,1.200 6.976,1.200 C5.487,1.200 4.096,1.834 3.062,2.986 C1.862,4.322 1.227,6.237 1.227,8.523 C1.227,16.166 11.622,21.541 14.014,22.676 C16.398,21.538 26.772,16.144 26.772,8.466 C26.772,6.209 26.142,4.331 24.950,3.036 C23.924,1.922 22.535,1.309 21.039,1.309 C16.953,1.309 13.997,7.423 13.997,7.423 C13.997,7.423 11.026,1.201 6.977,1.200 C6.977,1.200 6.976,0.000 6.976,0.000 C6.977,0.000 6.977,0.000 6.977,0.000 C9.656,0.001 12.443,1.682 13.993,5.245 C15.490,1.783 18.316,0.108 21.039,0.108 C24.602,0.108 27.989,2.977 27.989,8.466 C27.989,18.002 14.015,24.000 14.015,24.000 ZM7.918,3.600 C5.567,3.600 3.661,5.480 3.661,7.800 C3.661,8.120 3.705,8.430 3.774,8.729 C3.327,8.132 3.053,7.400 3.053,6.600 C3.053,4.612 4.687,3.000 6.702,3.000 C7.513,3.000 8.255,3.269 8.860,3.711 C8.556,3.643 8.243,3.600 7.918,3.600 ZM6.976,0.000 C6.976,0.000 6.976,0.000 6.976,0.000 C6.976,0.000 6.976,0.000 6.976,0.000 C6.976,0.000 6.976,0.000 6.976,0.000 Z" id="path-1" class="cls-2" fill-rule="evenodd"/>
</svg>
