<svg xmlns="http://www.w3.org/2000/svg" xmlns:xlink="http://www.w3.org/1999/xlink" preserveAspectRatio="xMidYMid" width="28" height="28" viewBox="0 0 28 28">
  <defs>
    <style>

      .cls-2 {
        fill: #ffffff;
      }
    </style>
  </defs>
  <path d="M14.000,27.987 C6.275,27.987 0.012,21.725 0.012,14.000 C0.012,6.275 6.275,0.012 14.000,0.012 C21.725,0.012 27.987,6.275 27.987,14.000 C27.987,21.725 21.725,27.987 14.000,27.987 ZM14.000,1.229 C6.946,1.229 1.229,6.947 1.229,14.000 C1.229,21.053 6.946,26.771 14.000,26.771 C21.053,26.771 26.771,21.053 26.771,14.000 C26.771,6.947 21.053,1.229 14.000,1.229 ZM14.353,20.844 C14.261,20.941 14.131,20.997 13.996,20.997 C13.860,20.997 13.730,20.941 13.638,20.844 C13.638,20.844 6.129,12.941 6.129,12.941 C5.956,12.760 5.954,12.480 6.123,12.295 C6.123,12.295 8.991,9.162 8.991,9.162 C9.084,9.061 9.216,9.003 9.355,9.003 C9.355,9.003 18.637,9.003 18.637,9.003 C18.776,9.003 18.908,9.061 19.001,9.162 C19.001,9.162 21.869,12.294 21.869,12.294 C22.038,12.478 22.035,12.758 21.863,12.940 C21.863,12.940 14.353,20.844 14.353,20.844 ZM13.990,19.400 C13.990,19.400 16.796,12.834 16.796,12.834 C16.796,12.834 11.028,12.834 11.028,12.834 C11.028,12.834 13.990,19.400 13.990,19.400 ZM13.320,19.104 C13.320,19.104 10.492,12.834 10.492,12.834 C10.492,12.834 7.362,12.834 7.362,12.834 C7.362,12.834 13.320,19.104 13.320,19.104 ZM9.321,10.236 C9.321,10.236 7.381,12.355 7.381,12.355 C7.381,12.355 10.276,12.355 10.276,12.355 C10.276,12.355 9.321,10.236 9.321,10.236 ZM9.732,9.961 C9.732,9.961 10.812,12.355 10.812,12.355 C10.812,12.355 17.000,12.355 17.000,12.355 C17.000,12.355 18.023,9.961 18.023,9.961 C18.023,9.961 9.732,9.961 9.732,9.961 ZM18.510,10.061 C18.510,10.061 17.531,12.355 17.531,12.355 C17.531,12.355 20.611,12.355 20.611,12.355 C20.611,12.355 18.510,10.061 18.510,10.061 ZM20.612,12.834 C20.612,12.834 17.326,12.834 17.326,12.834 C17.326,12.834 14.629,19.148 14.629,19.148 C14.629,19.148 20.639,12.823 20.639,12.823 C20.629,12.824 20.623,12.834 20.612,12.834 ZM16.458,10.679 C16.458,10.679 15.236,10.679 15.236,10.679 C15.101,10.679 14.991,10.572 14.991,10.440 C14.991,10.307 15.101,10.200 15.236,10.200 C15.236,10.200 16.458,10.200 16.458,10.200 C16.593,10.200 16.702,10.307 16.702,10.440 C16.702,10.572 16.593,10.679 16.458,10.679 ZM14.014,10.679 C14.014,10.679 11.081,10.679 11.081,10.679 C10.946,10.679 10.837,10.572 10.837,10.440 C10.837,10.307 10.946,10.200 11.081,10.200 C11.081,10.200 14.014,10.200 14.014,10.200 C14.149,10.200 14.258,10.307 14.258,10.440 C14.258,10.572 14.149,10.679 14.014,10.679 Z" id="path-1" class="cls-2" fill-rule="evenodd"/>
</svg>
