<svg xmlns="http://www.w3.org/2000/svg" xmlns:xlink="http://www.w3.org/1999/xlink" preserveAspectRatio="xMidYMid" width="27" height="23" viewBox="0 0 27 23">
  <defs>
    <style>

      .cls-2 {
        fill: #ffffff;
      }
    </style>
  </defs>
  <path d="M18.635,18.993 C17.810,21.322 15.611,23.000 13.000,23.000 C10.383,23.000 8.180,21.313 7.359,18.977 C7.239,18.983 7.122,19.000 7.000,19.000 C3.686,19.000 1.000,16.313 1.000,13.000 C1.000,11.932 1.303,10.942 1.792,10.073 C0.710,9.252 -0.000,7.964 -0.000,6.500 C-0.000,4.015 2.014,2.000 4.500,2.000 C5.156,2.000 5.775,2.147 6.338,2.400 C6.955,0.988 8.360,-0.000 10.000,-0.000 C10.000,-0.000 11.000,-0.000 11.000,-0.000 C12.806,-0.000 14.316,1.205 14.812,2.851 C15.929,2.310 17.177,2.000 18.500,2.000 C23.194,2.000 27.000,5.806 27.000,10.500 C27.000,15.148 23.267,18.920 18.635,18.993 ZM13.000,5.000 C9.686,5.000 7.000,7.686 7.000,11.000 C7.000,14.313 9.686,17.000 13.000,17.000 C16.313,17.000 19.000,14.313 19.000,11.000 C19.000,7.686 16.313,5.000 13.000,5.000 ZM12.437,6.812 C10.969,7.328 10.533,7.588 9.645,8.956 C8.853,10.180 8.894,11.125 8.981,12.507 C7.917,10.770 8.430,8.783 9.788,7.436 C10.735,6.498 12.337,5.951 13.664,6.189 C14.054,6.260 14.503,6.417 14.835,6.636 C14.568,6.563 13.978,6.524 13.594,6.562 C13.182,6.602 12.831,6.675 12.437,6.812 Z" id="path-1" class="cls-2" fill-rule="evenodd"/>
</svg>
