<svg xmlns="http://www.w3.org/2000/svg" xmlns:xlink="http://www.w3.org/1999/xlink" preserveAspectRatio="xMidYMid" width="28" height="28" viewBox="0 0 28 28">
  <defs>
    <style>

      .cls-2 {
        fill: #ffffff;
      }
    </style>
  </defs>
  <path d="M14.000,27.987 C6.275,27.987 0.012,21.725 0.012,14.000 C0.012,6.275 6.275,0.012 14.000,0.012 C21.725,0.012 27.987,6.275 27.987,14.000 C27.987,21.725 21.725,27.987 14.000,27.987 ZM14.000,1.229 C6.947,1.229 1.229,6.947 1.229,14.000 C1.229,21.053 6.947,26.771 14.000,26.771 C21.053,26.771 26.771,21.053 26.771,14.000 C26.771,6.947 21.053,1.229 14.000,1.229 ZM19.861,23.514 C20.000,23.208 20.081,22.871 20.081,22.514 C20.081,21.319 19.218,20.330 18.083,20.125 C18.393,19.820 18.680,19.481 18.944,19.113 C20.317,19.636 21.297,20.956 21.297,22.514 C21.297,22.563 21.285,22.610 21.283,22.659 C20.830,22.974 20.355,23.258 19.861,23.514 ZM14.000,20.689 C10.977,20.689 8.526,17.422 8.526,13.392 C8.526,9.361 10.977,6.094 14.000,6.094 C17.023,6.094 19.473,9.361 19.473,13.392 C19.473,17.422 17.023,20.689 14.000,20.689 ZM14.000,7.310 C11.649,7.310 9.743,10.033 9.743,13.392 C9.743,16.750 11.649,19.473 14.000,19.473 C16.351,19.473 18.257,16.750 18.257,13.392 C18.257,10.033 16.351,7.310 14.000,7.310 ZM9.916,20.125 C8.781,20.331 7.918,21.319 7.918,22.514 C7.918,22.871 8.000,23.208 8.138,23.514 C7.645,23.258 7.170,22.974 6.717,22.659 C6.715,22.610 6.702,22.563 6.702,22.514 C6.702,20.956 7.682,19.636 9.056,19.113 C9.319,19.481 9.606,19.820 9.916,20.125 Z" id="path-1" class="cls-2" fill-rule="evenodd"/>
</svg>
