<svg xmlns="http://www.w3.org/2000/svg" xmlns:xlink="http://www.w3.org/1999/xlink" preserveAspectRatio="xMidYMid" width="28" height="28" viewBox="0 0 28 28">
  <defs>
    <style>

      .cls-2 {
        fill: #ffffff;
      }
    </style>
  </defs>
  <path d="M18.727,27.786 C13.724,27.786 9.668,23.730 9.668,18.727 C9.668,13.724 13.724,9.669 18.727,9.669 C23.730,9.669 27.786,13.724 27.786,18.727 C27.786,23.730 23.730,27.786 18.727,27.786 ZM18.727,10.876 C14.391,10.876 10.876,14.391 10.876,18.727 C10.876,23.063 14.391,26.578 18.727,26.578 C23.063,26.578 26.578,23.063 26.578,18.727 C26.578,14.391 23.063,10.876 18.727,10.876 ZM24.162,19.331 C24.162,19.331 20.417,19.331 20.417,19.331 C20.166,20.031 19.513,20.539 18.727,20.539 C17.726,20.539 16.915,19.728 16.915,18.727 C16.915,17.941 17.423,17.288 18.123,17.037 C18.123,17.037 18.123,13.292 18.123,13.292 C18.123,12.959 18.394,12.688 18.727,12.688 C19.061,12.688 19.331,12.959 19.331,13.292 C19.331,13.292 19.331,17.037 19.331,17.037 C19.840,17.220 20.234,17.614 20.417,18.123 C20.417,18.123 24.162,18.123 24.162,18.123 C24.496,18.123 24.766,18.394 24.766,18.727 C24.766,19.061 24.496,19.331 24.162,19.331 ZM18.727,18.123 C18.394,18.123 18.123,18.394 18.123,18.727 C18.123,19.061 18.394,19.331 18.727,19.331 C19.061,19.331 19.331,19.061 19.331,18.727 C19.331,18.394 19.061,18.123 18.727,18.123 ZM11.480,8.461 C12.404,8.461 13.136,9.162 13.248,10.055 C12.406,10.589 11.649,11.239 10.996,11.986 C10.236,11.771 9.668,11.101 9.668,10.272 C9.668,9.272 10.480,8.461 11.480,8.461 ZM11.480,10.876 C11.814,10.876 12.084,10.606 12.084,10.272 C12.084,9.939 11.814,9.669 11.480,9.669 C11.147,9.669 10.876,9.939 10.876,10.272 C10.876,10.606 11.147,10.876 11.480,10.876 ZM6.045,12.084 C5.044,12.084 4.233,11.273 4.233,10.272 C4.233,9.272 5.044,8.461 6.045,8.461 C7.046,8.461 7.857,9.272 7.857,10.272 C7.857,11.273 7.046,12.084 6.045,12.084 ZM6.045,9.669 C5.712,9.669 5.441,9.939 5.441,10.272 C5.441,10.606 5.712,10.876 6.045,10.876 C6.379,10.876 6.649,10.606 6.649,10.272 C6.649,9.939 6.379,9.669 6.045,9.669 ZM6.045,18.727 C5.044,18.727 4.233,17.916 4.233,16.915 C4.233,15.915 5.044,15.104 6.045,15.104 C7.046,15.104 7.857,15.915 7.857,16.915 C7.857,17.916 7.046,18.727 6.045,18.727 ZM6.045,16.312 C5.712,16.312 5.441,16.582 5.441,16.915 C5.441,17.249 5.712,17.519 6.045,17.519 C6.379,17.519 6.649,17.249 6.649,16.915 C6.649,16.582 6.379,16.312 6.045,16.312 ZM21.747,4.233 C21.747,3.566 21.206,3.026 20.539,3.026 C20.539,3.026 19.331,3.026 19.331,3.026 C19.331,4.026 18.520,4.837 17.519,4.837 C16.519,4.837 15.708,4.026 15.708,3.026 C15.708,3.026 13.292,3.026 13.292,3.026 C13.292,4.026 12.481,4.837 11.480,4.837 C10.480,4.837 9.669,4.026 9.668,3.026 C9.668,3.026 7.253,3.026 7.253,3.026 C7.253,4.026 6.442,4.837 5.441,4.837 C4.441,4.837 3.629,4.026 3.629,3.026 C3.629,3.026 2.422,3.026 2.422,3.026 C1.755,3.026 1.214,3.566 1.214,4.233 C1.214,4.233 1.214,22.351 1.214,22.351 C1.214,23.018 1.755,23.558 2.422,23.558 C2.422,23.558 9.670,23.558 9.670,23.558 C9.896,23.981 10.157,24.381 10.438,24.766 C10.438,24.766 2.422,24.766 2.422,24.766 C1.088,24.766 0.006,23.685 0.006,22.351 C0.006,22.351 0.006,4.233 0.006,4.233 C0.006,2.899 1.088,1.818 2.422,1.818 C2.422,1.818 3.629,1.818 3.629,1.818 C3.629,0.817 4.441,0.006 5.441,0.006 C6.442,0.006 7.253,0.817 7.253,1.818 C7.253,1.818 9.668,1.818 9.668,1.818 C9.668,0.817 10.480,0.006 11.480,0.006 C12.481,0.006 13.292,0.817 13.292,1.818 C13.292,1.818 15.708,1.818 15.708,1.818 C15.708,0.817 16.519,0.006 17.519,0.006 C18.520,0.006 19.331,0.817 19.331,1.818 C19.331,1.818 20.539,1.818 20.539,1.818 C21.873,1.818 22.954,2.899 22.954,4.233 C22.954,4.233 22.954,9.379 22.954,9.379 C22.563,9.202 22.162,9.042 21.747,8.914 C21.747,8.914 21.747,4.233 21.747,4.233 ZM6.045,1.818 C6.045,1.484 5.775,1.214 5.441,1.214 C5.108,1.214 4.837,1.484 4.837,1.818 C4.837,1.818 4.837,3.026 4.837,3.026 C4.837,3.359 5.108,3.630 5.441,3.630 C5.775,3.630 6.045,3.359 6.045,3.026 C6.045,3.026 6.045,1.818 6.045,1.818 ZM12.084,1.818 C12.084,1.484 11.814,1.214 11.480,1.214 C11.147,1.214 10.876,1.484 10.876,1.818 C10.876,1.818 10.876,3.026 10.876,3.026 C10.876,3.359 11.147,3.630 11.480,3.630 C11.814,3.630 12.084,3.359 12.084,3.026 C12.084,3.026 12.084,1.818 12.084,1.818 ZM18.123,1.818 C18.123,1.484 17.853,1.214 17.519,1.214 C17.186,1.214 16.915,1.484 16.915,1.818 C16.915,1.818 16.915,3.026 16.915,3.026 C16.915,3.359 17.186,3.630 17.519,3.630 C17.853,3.630 18.123,3.359 18.123,3.026 C18.123,3.026 18.123,1.818 18.123,1.818 Z" id="path-1" class="cls-2" fill-rule="evenodd"/>
</svg>
