<svg xmlns="http://www.w3.org/2000/svg" xmlns:xlink="http://www.w3.org/1999/xlink" preserveAspectRatio="xMidYMid" width="28" height="28" viewBox="0 0 28 28">
  <defs>
    <style>

      .cls-2 {
        fill: #ffffff;
      }
    </style>
  </defs>
  <path d="M25.496,5.061 C25.496,5.061 24.636,5.913 24.636,5.913 C24.636,5.913 23.776,5.061 23.776,5.061 C23.776,5.061 22.916,4.208 22.916,4.208 C22.916,4.208 22.056,3.356 22.056,3.356 C22.056,3.356 22.916,2.504 22.916,2.504 C22.916,2.504 23.346,2.078 23.346,2.078 C24.059,1.372 25.214,1.372 25.926,2.078 C26.639,2.784 26.639,3.929 25.926,4.635 C25.926,4.635 25.496,5.061 25.496,5.061 ZM25.066,2.930 C24.829,2.695 24.444,2.695 24.206,2.930 C24.206,2.930 23.776,3.356 23.776,3.356 C23.776,3.356 24.636,4.208 24.636,4.208 C24.636,4.208 25.066,3.782 25.066,3.782 C25.304,3.547 25.304,3.165 25.066,2.930 ZM10.980,16.038 C10.980,16.038 11.840,16.890 11.840,16.890 C11.840,16.890 22.916,5.913 22.916,5.913 C22.916,5.913 23.776,6.765 23.776,6.765 C23.776,6.765 12.700,17.742 12.700,17.742 C12.700,17.742 12.677,17.719 12.677,17.719 C12.677,17.719 8.141,19.677 8.141,19.677 C8.141,19.677 10.116,15.182 10.116,15.182 C10.116,15.182 10.120,15.186 10.120,15.186 C10.120,15.186 21.196,4.208 21.196,4.208 C21.196,4.208 22.056,5.061 22.056,5.061 C22.056,5.061 10.980,16.038 10.980,16.038 ZM14.000,1.194 C6.946,1.194 1.229,6.860 1.229,13.850 C1.229,20.840 6.946,26.507 14.000,26.507 C21.053,26.507 26.771,20.840 26.771,13.850 C26.771,11.592 26.167,9.477 25.121,7.641 C25.121,7.641 26.006,6.765 26.006,6.765 C27.256,8.840 27.987,11.258 27.987,13.850 C27.987,21.506 21.725,27.712 14.000,27.712 C6.275,27.712 0.012,21.506 0.012,13.850 C0.012,6.195 6.275,-0.012 14.000,-0.012 C16.457,-0.012 18.764,0.621 20.771,1.724 C20.771,1.724 19.870,2.618 19.870,2.618 C18.111,1.713 16.118,1.194 14.000,1.194 Z" id="path-1" class="cls-2" fill-rule="evenodd"/>
</svg>
