<svg xmlns="http://www.w3.org/2000/svg" xmlns:xlink="http://www.w3.org/1999/xlink" preserveAspectRatio="xMidYMid" width="23" height="28" viewBox="0 0 23 28">
  <defs>
    <style>

      .cls-2 {
        fill: #ffffff;
      }
    </style>
  </defs>
  <path d="M20.574,10.351 C19.237,10.351 18.154,9.262 18.154,7.919 C18.154,6.575 19.237,5.486 20.574,5.486 C21.910,5.486 22.994,6.575 22.994,7.919 C22.994,9.262 21.910,10.351 20.574,10.351 ZM20.574,6.702 C19.906,6.702 19.364,7.247 19.364,7.919 C19.364,8.590 19.906,9.135 20.574,9.135 C21.242,9.135 21.784,8.590 21.784,7.919 C21.784,7.247 21.242,6.702 20.574,6.702 ZM19.969,4.331 C19.969,4.331 19.969,0.621 19.969,0.621 C19.969,0.285 20.240,0.013 20.574,0.013 C20.908,0.013 21.179,0.285 21.179,0.621 C21.179,0.621 21.179,4.331 21.179,4.331 C20.981,4.297 20.781,4.270 20.574,4.270 C20.367,4.270 20.167,4.297 19.969,4.331 ZM11.500,22.514 C10.163,22.514 9.080,21.425 9.080,20.081 C9.080,18.738 10.163,17.649 11.500,17.649 C12.836,17.649 13.920,18.738 13.920,20.081 C13.920,21.425 12.836,22.514 11.500,22.514 ZM11.500,18.865 C10.832,18.865 10.290,19.410 10.290,20.081 C10.290,20.753 10.832,21.298 11.500,21.298 C12.168,21.298 12.710,20.753 12.710,20.081 C12.710,19.410 12.168,18.865 11.500,18.865 ZM12.105,15.669 C12.105,15.669 12.105,16.494 12.105,16.494 C11.907,16.460 11.707,16.433 11.500,16.433 C11.293,16.433 11.093,16.460 10.895,16.494 C10.895,16.494 10.895,15.669 10.895,15.669 C11.093,15.703 11.293,15.730 11.500,15.730 C11.707,15.730 11.907,15.703 12.105,15.669 ZM11.500,14.514 C10.163,14.514 9.080,13.425 9.080,12.081 C9.080,10.738 10.163,9.649 11.500,9.649 C12.836,9.649 13.920,10.738 13.920,12.081 C13.920,13.425 12.836,14.514 11.500,14.514 ZM11.500,10.865 C10.832,10.865 10.290,11.410 10.290,12.081 C10.290,12.753 10.832,13.298 11.500,13.298 C12.168,13.298 12.710,12.753 12.710,12.081 C12.710,11.410 12.168,10.865 11.500,10.865 ZM10.895,8.494 C10.895,8.494 10.895,0.621 10.895,0.621 C10.895,0.285 11.166,0.013 11.500,0.013 C11.834,0.013 12.105,0.285 12.105,0.621 C12.105,0.621 12.105,8.494 12.105,8.494 C11.907,8.460 11.707,8.433 11.500,8.433 C11.293,8.433 11.093,8.460 10.895,8.494 ZM2.426,10.351 C1.090,10.351 0.006,9.262 0.006,7.919 C0.006,6.575 1.090,5.486 2.426,5.486 C3.762,5.486 4.846,6.575 4.846,7.919 C4.846,9.262 3.762,10.351 2.426,10.351 ZM2.426,6.702 C1.758,6.702 1.216,7.247 1.216,7.919 C1.216,8.590 1.758,9.135 2.426,9.135 C3.094,9.135 3.636,8.590 3.636,7.919 C3.636,7.247 3.094,6.702 2.426,6.702 ZM1.821,4.331 C1.821,4.331 1.821,0.621 1.821,0.621 C1.821,0.285 2.092,0.013 2.426,0.013 C2.760,0.013 3.031,0.285 3.031,0.621 C3.031,0.621 3.031,4.331 3.031,4.331 C2.833,4.297 2.633,4.270 2.426,4.270 C2.219,4.270 2.019,4.297 1.821,4.331 ZM3.031,11.506 C3.031,11.506 3.031,27.379 3.031,27.379 C3.031,27.715 2.760,27.987 2.426,27.987 C2.092,27.987 1.821,27.715 1.821,27.379 C1.821,27.379 1.821,11.506 1.821,11.506 C2.019,11.540 2.219,11.567 2.426,11.567 C2.633,11.567 2.833,11.540 3.031,11.506 ZM12.105,23.669 C12.105,23.669 12.105,27.379 12.105,27.379 C12.105,27.715 11.834,27.987 11.500,27.987 C11.166,27.987 10.895,27.715 10.895,27.379 C10.895,27.379 10.895,23.669 10.895,23.669 C11.093,23.703 11.293,23.730 11.500,23.730 C11.707,23.730 11.907,23.703 12.105,23.669 ZM21.179,11.506 C21.179,11.506 21.179,27.379 21.179,27.379 C21.179,27.715 20.908,27.987 20.574,27.987 C20.240,27.987 19.969,27.715 19.969,27.379 C19.969,27.379 19.969,11.506 19.969,11.506 C20.167,11.540 20.367,11.567 20.574,11.567 C20.781,11.567 20.981,11.540 21.179,11.506 Z" id="path-1" class="cls-2" fill-rule="evenodd"/>
</svg>
