<svg xmlns="http://www.w3.org/2000/svg" xmlns:xlink="http://www.w3.org/1999/xlink" preserveAspectRatio="xMidYMid" width="14" height="16" viewBox="0 0 14 16">
  <defs>
    <style>

      .cls-2 {
        fill: #ffffff;
      }
    </style>
  </defs>
  <path d="M14.004,13.455 C14.004,13.455 13.654,13.455 13.654,13.455 C13.654,13.455 13.304,13.455 13.304,13.455 C13.304,13.455 0.696,13.455 0.696,13.455 C0.696,13.455 0.346,13.455 0.346,13.455 C0.346,13.455 -0.005,13.455 -0.005,13.455 C-0.005,13.351 0.011,13.251 0.018,13.149 C0.014,13.128 -0.005,13.114 -0.005,13.091 C-0.005,13.059 0.021,13.038 0.029,13.008 C0.160,11.795 0.810,10.753 1.747,10.117 C1.747,10.117 1.747,6.905 1.747,6.905 C1.747,4.531 3.214,2.532 5.252,1.781 C5.268,0.790 6.043,-0.008 7.000,-0.008 C7.957,-0.008 8.732,0.790 8.748,1.781 C10.785,2.532 12.253,4.531 12.253,6.905 C12.253,6.905 12.253,10.117 12.253,10.117 C13.190,10.753 13.840,11.795 13.971,13.008 C13.979,13.038 14.004,13.059 14.004,13.091 C14.004,13.114 13.985,13.128 13.982,13.149 C13.989,13.251 14.004,13.351 14.004,13.455 ZM11.553,10.525 C11.553,10.525 11.553,10.488 11.553,10.488 C11.553,10.488 11.553,9.730 11.553,9.730 C11.553,9.730 11.553,6.905 11.553,6.905 C11.553,6.611 11.519,6.325 11.469,6.045 C11.454,5.961 11.433,5.880 11.414,5.797 C11.368,5.598 11.310,5.404 11.240,5.215 C11.210,5.135 11.183,5.054 11.149,4.976 C11.050,4.746 10.936,4.525 10.804,4.316 C10.791,4.296 10.782,4.273 10.769,4.253 C10.624,4.032 10.457,3.829 10.280,3.636 C10.218,3.570 10.152,3.510 10.087,3.447 C9.957,3.322 9.821,3.205 9.677,3.096 C9.601,3.038 9.527,2.981 9.448,2.928 C9.268,2.808 9.080,2.703 8.885,2.610 C8.619,2.484 8.341,2.386 8.051,2.314 C8.051,2.314 8.051,1.811 8.051,1.811 C8.051,1.208 7.580,0.720 7.000,0.720 C6.420,0.720 5.949,1.208 5.949,1.811 C5.949,1.811 5.949,2.314 5.949,2.314 C5.709,2.373 5.473,2.443 5.249,2.540 C5.249,2.540 5.249,2.540 5.249,2.540 C5.202,2.560 5.161,2.588 5.116,2.610 C4.920,2.703 4.732,2.808 4.552,2.928 C4.473,2.981 4.399,3.038 4.323,3.096 C4.179,3.205 4.043,3.322 3.912,3.447 C3.848,3.510 3.782,3.570 3.720,3.636 C3.543,3.829 3.376,4.032 3.231,4.253 C3.218,4.273 3.208,4.296 3.196,4.316 C3.064,4.525 2.950,4.746 2.851,4.976 C2.817,5.054 2.789,5.135 2.760,5.215 C2.690,5.404 2.632,5.598 2.586,5.797 C2.567,5.880 2.545,5.961 2.530,6.045 C2.481,6.325 2.447,6.611 2.447,6.905 C2.447,6.905 2.447,9.730 2.447,9.730 C2.447,9.730 2.447,10.488 2.447,10.488 C2.447,10.488 2.447,10.525 2.447,10.525 C1.614,10.956 1.010,11.763 0.796,12.728 C0.796,12.728 13.203,12.728 13.203,12.728 C12.990,11.763 12.386,10.956 11.553,10.525 ZM10.502,6.905 C10.502,6.905 10.168,6.016 9.451,5.086 C8.767,4.198 8.051,3.631 8.051,3.631 C8.051,3.631 9.110,3.823 9.802,4.722 C10.510,5.642 10.502,6.905 10.502,6.905 ZM7.000,15.275 C7.580,15.275 8.051,14.786 8.051,14.183 C8.051,14.183 8.751,14.183 8.751,14.183 C8.751,15.188 7.967,16.002 7.000,16.002 C6.033,16.002 5.249,15.188 5.249,14.183 C5.249,14.183 5.949,14.183 5.949,14.183 C5.949,14.786 6.420,15.275 7.000,15.275 Z" id="path-1" class="cls-2" fill-rule="evenodd"/>
</svg>
