<svg xmlns="http://www.w3.org/2000/svg" xmlns:xlink="http://www.w3.org/1999/xlink" preserveAspectRatio="xMidYMid" width="119" height="22" viewBox="0 0 119 22">
  <defs>
    <style>

      .cls-2 {
        fill: #aa021c;
      }
    </style>
  </defs>
  <path d="M116.009,4.556 C115.857,4.423 115.630,4.355 115.328,4.355 C115.328,4.355 103.917,4.355 103.917,4.355 C103.917,4.355 103.917,8.662 103.917,8.662 C105.528,7.861 107.398,7.461 109.527,7.461 C112.310,7.461 114.497,8.111 116.089,9.409 C117.564,10.610 118.301,12.197 118.301,14.170 C118.301,15.674 117.857,17.022 116.968,18.213 C115.445,20.264 112.852,21.289 109.190,21.289 C106.827,21.289 104.790,20.869 103.082,20.029 C102.662,19.824 101.978,19.443 101.031,18.887 C100.621,18.643 100.249,18.521 99.917,18.521 C99.732,18.521 99.444,18.633 99.053,18.857 C99.053,18.857 98.672,18.569 98.672,18.569 C98.672,18.569 102.203,13.906 102.203,13.906 C102.203,13.906 102.583,14.170 102.583,14.170 C102.515,14.424 102.481,14.639 102.481,14.814 C102.481,15.313 102.876,15.811 103.667,16.309 C105.308,17.363 107.115,17.891 109.087,17.891 C110.562,17.891 111.724,17.583 112.574,16.966 C113.492,16.291 113.951,15.366 113.951,14.192 C113.951,13.106 113.509,12.240 112.625,11.594 C111.741,10.948 110.557,10.625 109.073,10.625 C107.979,10.625 106.946,10.801 105.975,11.152 C105.003,11.504 104.517,11.880 104.517,12.280 C104.517,12.417 104.585,12.612 104.722,12.866 C104.722,12.866 104.371,13.174 104.371,13.174 C104.371,13.174 99.214,7.988 99.214,7.988 C99.214,7.988 99.522,7.637 99.522,7.637 C99.600,7.647 99.663,7.651 99.712,7.651 C100.181,7.651 100.416,7.354 100.416,6.758 C100.416,6.758 100.416,2.524 100.416,2.524 C100.416,2.202 100.345,1.958 100.203,1.792 C100.061,1.626 99.820,1.499 99.478,1.411 C99.478,1.411 99.478,0.942 99.478,0.942 C99.478,0.942 115.328,0.942 115.328,0.942 C115.630,0.942 115.857,0.875 116.009,0.741 C116.160,0.606 116.289,0.361 116.397,0.005 C116.397,0.005 116.866,0.005 116.866,0.005 C116.866,0.005 116.866,5.293 116.866,5.293 C116.866,5.293 116.397,5.293 116.397,5.293 C116.289,4.936 116.160,4.690 116.009,4.556 ZM93.750,6.685 C93.799,6.431 93.824,6.240 93.824,6.113 C93.824,5.723 93.511,5.332 92.886,4.941 C92.359,4.610 91.690,4.341 90.879,4.136 C90.069,3.931 89.283,3.828 88.521,3.828 C86.900,3.828 85.513,4.253 84.361,5.103 C83.609,5.659 83.052,6.331 82.691,7.117 C82.330,7.903 82.100,8.931 82.002,10.200 C82.989,9.321 83.987,8.689 84.998,8.303 C86.009,7.918 87.173,7.725 88.492,7.725 C90.621,7.725 92.447,8.232 93.970,9.248 C94.820,9.815 95.494,10.557 95.992,11.475 C96.460,12.363 96.695,13.340 96.695,14.404 C96.695,16.494 95.821,18.174 94.073,19.443 C92.383,20.674 90.225,21.289 87.598,21.289 C84.766,21.289 82.554,20.576 80.962,19.150 C79.908,18.213 79.117,17.012 78.589,15.547 C78.091,14.141 77.842,12.671 77.842,11.138 C77.842,8.023 78.804,5.503 80.728,3.579 C82.720,1.587 85.303,0.591 88.477,0.591 C89.590,0.591 90.599,0.693 91.502,0.898 C92.405,1.104 93.443,1.465 94.615,1.982 C95.025,2.168 95.347,2.261 95.582,2.261 C95.747,2.261 95.909,2.197 96.065,2.070 C96.192,1.963 96.285,1.890 96.343,1.851 C96.343,1.851 96.739,2.100 96.739,2.100 C96.739,2.100 94.161,6.890 94.161,6.890 C94.161,6.890 93.750,6.685 93.750,6.685 ZM84.068,16.895 C84.996,17.627 86.216,17.993 87.730,17.993 C89.244,17.993 90.464,17.627 91.392,16.895 C92.173,16.279 92.564,15.503 92.564,14.565 C92.564,13.579 92.173,12.778 91.392,12.163 C90.474,11.441 89.244,11.074 87.701,11.064 C86.216,11.064 85.005,11.431 84.068,12.163 C83.286,12.769 82.896,13.555 82.896,14.521 C82.896,15.488 83.286,16.279 84.068,16.895 ZM72.364,19.810 C70.694,20.796 68.604,21.289 66.094,21.289 C63.428,21.289 61.011,20.767 58.843,19.722 C57.935,19.282 57.349,19.063 57.085,19.063 C56.841,19.063 56.509,19.243 56.089,19.604 C56.089,19.604 55.665,19.387 55.665,19.387 C55.665,19.387 58.008,13.994 58.008,13.994 C58.008,13.994 58.448,14.185 58.448,14.185 C58.399,14.302 58.375,14.404 58.375,14.492 C58.375,15.020 58.643,15.503 59.180,15.942 C59.873,16.509 60.865,16.975 62.154,17.341 C63.443,17.708 64.737,17.891 66.036,17.891 C67.266,17.891 68.321,17.690 69.200,17.288 C70.313,16.779 70.870,15.982 70.870,14.895 C70.870,13.955 70.474,13.245 69.683,12.766 C68.892,12.286 67.725,12.046 66.182,12.046 C65.245,12.046 64.598,12.114 64.241,12.251 C63.885,12.388 63.658,12.656 63.560,13.057 C63.560,13.057 63.091,13.057 63.091,13.057 C63.091,13.057 63.091,8.149 63.091,8.149 C63.091,8.149 63.560,8.149 63.560,8.149 C63.677,8.589 63.894,8.875 64.212,9.006 C64.529,9.138 65.152,9.204 66.080,9.204 C67.525,9.204 68.633,8.950 69.405,8.442 C70.079,8.013 70.416,7.393 70.416,6.582 C70.416,5.752 70.039,5.112 69.288,4.663 C68.535,4.214 67.461,3.989 66.065,3.989 C64.092,3.989 62.359,4.424 60.865,5.293 C60.142,5.723 59.781,6.172 59.781,6.641 C59.781,6.826 59.844,7.046 59.971,7.300 C59.971,7.300 59.605,7.593 59.605,7.593 C59.605,7.593 56.236,3.447 56.236,3.447 C56.236,3.447 56.602,3.154 56.602,3.154 C56.963,3.320 57.232,3.403 57.408,3.403 C57.603,3.403 57.867,3.291 58.199,3.066 C60.650,1.416 63.389,0.591 66.417,0.591 C68.526,0.591 70.303,1.006 71.749,1.836 C72.578,2.315 73.228,2.935 73.697,3.696 C74.175,4.487 74.415,5.371 74.415,6.348 C74.415,8.096 73.575,9.463 71.895,10.449 C74.112,11.279 75.220,12.754 75.220,14.873 C75.220,17.041 74.268,18.687 72.364,19.810 ZM47.007,20.469 C47.359,20.371 47.603,20.244 47.740,20.088 C47.876,19.932 47.945,19.702 47.945,19.399 C47.945,19.399 47.945,2.466 47.945,2.466 C47.945,2.173 47.876,1.948 47.740,1.792 C47.603,1.636 47.359,1.509 47.007,1.411 C47.007,1.411 47.007,0.942 47.007,0.942 C47.007,0.942 53.248,0.942 53.248,0.942 C53.248,0.942 53.248,1.411 53.248,1.411 C52.896,1.499 52.652,1.624 52.515,1.785 C52.378,1.946 52.310,2.173 52.310,2.466 C52.310,2.466 52.310,19.399 52.310,19.399 C52.310,19.702 52.381,19.934 52.522,20.095 C52.664,20.256 52.906,20.381 53.248,20.469 C53.248,20.469 53.248,20.937 53.248,20.937 C53.248,20.937 47.007,20.937 47.007,20.937 C47.007,20.937 47.007,20.469 47.007,20.469 ZM40.848,12.273 C39.817,12.639 38.379,12.822 36.534,12.822 C36.534,12.822 29.356,12.822 29.356,12.822 C29.356,12.822 29.356,19.414 29.356,19.414 C29.356,19.707 29.427,19.934 29.568,20.095 C29.710,20.256 29.952,20.381 30.293,20.469 C30.293,20.469 30.293,20.937 30.293,20.937 C30.293,20.937 24.053,20.937 24.053,20.937 C24.053,20.937 24.053,20.469 24.053,20.469 C24.405,20.371 24.649,20.244 24.786,20.088 C24.922,19.932 24.991,19.707 24.991,19.414 C24.991,19.414 24.991,2.480 24.991,2.480 C24.991,2.178 24.922,1.948 24.786,1.792 C24.649,1.636 24.405,1.509 24.053,1.411 C24.053,1.411 24.053,0.942 24.053,0.942 C24.053,0.942 36.534,0.942 36.534,0.942 C37.989,0.942 39.143,1.040 39.998,1.235 C40.852,1.431 41.607,1.768 42.261,2.246 C42.935,2.744 43.462,3.399 43.843,4.209 C44.224,5.049 44.415,5.937 44.415,6.875 C44.415,8.223 44.053,9.404 43.331,10.420 C42.705,11.289 41.878,11.907 40.848,12.273 ZM39.646,5.549 C39.436,5.144 39.161,4.849 38.819,4.663 C38.292,4.380 37.359,4.238 36.021,4.238 C36.021,4.238 29.356,4.238 29.356,4.238 C29.356,4.238 29.356,9.526 29.356,9.526 C29.356,9.526 36.021,9.526 36.021,9.526 C37.349,9.526 38.282,9.385 38.819,9.102 C39.161,8.916 39.436,8.621 39.646,8.215 C39.856,7.810 39.961,7.363 39.961,6.875 C39.961,6.397 39.856,5.955 39.646,5.549 ZM14.129,20.469 C14.647,20.361 14.906,20.176 14.906,19.912 C14.906,19.775 14.672,19.414 14.203,18.828 C14.203,18.828 8.316,11.606 8.316,11.606 C8.316,11.606 5.303,14.038 5.303,14.038 C5.303,14.038 5.303,19.399 5.303,19.399 C5.303,19.702 5.374,19.934 5.516,20.095 C5.657,20.256 5.899,20.381 6.241,20.469 C6.241,20.469 6.241,20.937 6.241,20.937 C6.241,20.937 0.000,20.937 0.000,20.937 C0.000,20.937 0.000,20.469 0.000,20.469 C0.352,20.371 0.596,20.244 0.733,20.088 C0.870,19.932 0.938,19.702 0.938,19.399 C0.938,19.399 0.938,2.466 0.938,2.466 C0.938,2.173 0.870,1.948 0.733,1.792 C0.596,1.636 0.352,1.509 0.000,1.411 C0.000,1.411 0.000,0.942 0.000,0.942 C0.000,0.942 6.241,0.942 6.241,0.942 C6.241,0.942 6.241,1.411 6.241,1.411 C5.889,1.499 5.645,1.624 5.508,1.785 C5.371,1.946 5.303,2.173 5.303,2.465 C5.303,2.465 5.303,9.464 5.303,9.464 C5.303,9.464 13.536,2.744 13.536,2.744 C13.917,2.432 14.108,2.183 14.108,1.997 C14.108,1.714 13.824,1.519 13.258,1.411 C13.258,1.411 13.258,0.942 13.258,0.942 C13.258,0.942 21.431,0.942 21.431,0.942 C21.431,0.942 21.431,1.411 21.431,1.411 C21.089,1.480 20.845,1.558 20.699,1.646 C20.552,1.733 20.127,2.066 19.424,2.642 C19.424,2.642 18.296,3.579 18.296,3.579 C18.296,3.579 11.497,9.040 11.497,9.040 C11.497,9.040 19.205,18.315 19.205,18.315 C19.917,19.175 20.433,19.729 20.750,19.978 C21.067,20.227 21.465,20.391 21.944,20.469 C21.944,20.469 21.944,20.937 21.944,20.937 C21.944,20.937 14.129,20.937 14.129,20.937 C14.129,20.937 14.129,20.469 14.129,20.469 Z" id="path-1" class="cls-2" fill-rule="evenodd"/>
</svg>
