<svg xmlns="http://www.w3.org/2000/svg" xmlns:xlink="http://www.w3.org/1999/xlink" preserveAspectRatio="xMidYMid" width="32" height="26" viewBox="0 0 32 26">
  <defs>
    <style>

      .cls-2 {
        fill: #ffffff;
      }
    </style>
  </defs>
  <path d="M27.971,23.177 C27.971,23.177 28.820,26.000 28.820,26.000 C28.820,26.000 25.722,24.303 25.722,24.303 C24.592,24.586 23.457,24.870 22.332,24.870 C16.957,24.870 12.724,21.196 12.724,16.672 C12.724,12.155 16.957,8.474 22.332,8.474 C27.408,8.474 31.928,12.155 31.928,16.672 C31.928,19.219 30.238,21.475 27.971,23.177 ZM19.217,12.998 C18.654,12.998 18.087,13.565 18.087,14.128 C18.087,14.699 18.654,15.258 19.217,15.258 C20.071,15.258 20.631,14.699 20.631,14.128 C20.631,13.565 20.071,12.998 19.217,12.998 ZM25.431,12.998 C24.872,12.998 24.308,13.565 24.308,14.128 C24.308,14.699 24.872,15.258 25.431,15.258 C26.277,15.258 26.845,14.699 26.845,14.128 C26.845,13.565 26.277,12.998 25.431,12.998 ZM12.013,16.807 C12.013,17.628 12.141,18.419 12.361,19.175 C12.013,19.202 11.661,19.219 11.307,19.219 C9.896,19.219 8.763,18.932 7.349,18.652 C7.349,18.652 3.400,20.633 3.400,20.633 C3.400,20.633 4.530,17.234 4.530,17.234 C1.702,15.258 0.010,12.710 0.010,9.608 C0.010,4.233 5.097,-0.000 11.307,-0.000 C16.861,-0.000 21.727,3.382 22.705,7.933 C22.346,7.893 21.983,7.866 21.617,7.866 C16.251,7.866 12.013,11.872 12.013,16.807 ZM7.637,4.803 C6.790,4.803 5.936,5.363 5.936,6.213 C5.936,7.060 6.790,7.627 7.637,7.627 C8.483,7.627 9.047,7.060 9.047,6.213 C9.047,5.363 8.483,4.803 7.637,4.803 ZM15.543,4.803 C14.696,4.803 13.847,5.363 13.847,6.213 C13.847,7.060 14.696,7.627 15.543,7.627 C16.393,7.627 16.957,7.060 16.957,6.213 C16.957,5.363 16.393,4.803 15.543,4.803 Z" id="path-1" class="cls-2" fill-rule="evenodd"/>
</svg>
