<svg xmlns="http://www.w3.org/2000/svg" xmlns:xlink="http://www.w3.org/1999/xlink" preserveAspectRatio="xMidYMid" width="14" height="9" viewBox="0 0 14 9">
  <defs>
    <style>

      .cls-2 {
        fill: #00a0e9;
      }
    </style>
  </defs>
  <path d="M5.713,8.664 C5.565,8.664 5.417,8.606 5.304,8.491 C5.304,8.491 0.162,3.254 0.162,3.254 C-0.063,3.024 -0.063,2.652 0.162,2.422 C0.388,2.192 0.753,2.192 0.979,2.422 C0.979,2.422 5.713,7.244 5.713,7.244 C5.713,7.244 12.675,0.152 12.675,0.152 C12.900,-0.078 13.266,-0.078 13.491,0.152 C13.717,0.382 13.717,0.754 13.491,0.984 C13.491,0.984 6.121,8.491 6.121,8.491 C6.008,8.606 5.860,8.664 5.713,8.664 Z" id="path-1" class="cls-2" fill-rule="evenodd"/>
</svg>
