<svg xmlns="http://www.w3.org/2000/svg" xmlns:xlink="http://www.w3.org/1999/xlink" preserveAspectRatio="xMidYMid" width="32" height="30" viewBox="0 0 32 30">
  <defs>
    <style>

      .cls-2 {
        fill: #000000;
        stroke: #cccccc;
        stroke-linejoin: round;
        stroke-width: 1px;
        fill-opacity: 0;
      }
    </style>
  </defs>
  <path d="M25.425,29.497 C25.425,29.497 15.906,22.621 15.906,22.621 C15.906,22.621 6.380,29.488 6.380,29.488 C6.380,29.488 10.049,18.408 10.049,18.408 C10.049,18.408 0.503,11.569 0.503,11.569 C0.503,11.569 12.290,11.597 12.290,11.597 C12.290,11.597 15.916,0.503 15.916,0.503 C15.916,0.503 19.531,11.600 19.531,11.600 C19.531,11.600 31.318,11.583 31.318,11.583 C31.318,11.583 21.766,18.413 21.766,18.413 C21.766,18.413 25.425,29.497 25.425,29.497 Z" id="path-1" class="cls-2" fill-rule="evenodd"/>
</svg>
