<svg xmlns="http://www.w3.org/2000/svg" xmlns:xlink="http://www.w3.org/1999/xlink" preserveAspectRatio="xMidYMid" width="31" height="29" viewBox="0 0 31 29">
  <defs>
    <style>

      .cls-2 {
        fill: #ffbb55;
      }
    </style>
  </defs>
  <path d="M24.923,28.997 C24.923,28.997 15.403,22.121 15.403,22.121 C15.403,22.121 5.878,28.988 5.878,28.988 C5.878,28.988 9.547,17.908 9.547,17.908 C9.547,17.908 0.001,11.069 0.001,11.069 C0.001,11.069 11.788,11.097 11.788,11.097 C11.788,11.097 15.414,0.003 15.414,0.003 C15.414,0.003 19.029,11.100 19.029,11.100 C19.029,11.100 30.816,11.083 30.816,11.083 C30.816,11.083 21.264,17.913 21.264,17.913 C21.264,17.913 24.923,28.997 24.923,28.997 Z" id="path-1" class="cls-2" fill-rule="evenodd"/>
</svg>
