<svg xmlns="http://www.w3.org/2000/svg" xmlns:xlink="http://www.w3.org/1999/xlink" preserveAspectRatio="xMidYMid" width="24" height="19" viewBox="0 0 24 19">
  <defs>
    <style>

      .cls-2 {
        fill: #5c5c5c;
      }
    </style>
  </defs>
  <path d="M21.625,19.000 C21.625,19.000 2.375,19.000 2.375,19.000 C1.065,19.000 -0.000,17.935 -0.000,16.625 C-0.000,16.625 -0.000,2.375 -0.000,2.375 C-0.000,1.065 1.065,-0.000 2.375,-0.000 C2.375,-0.000 21.625,-0.000 21.625,-0.000 C22.934,-0.000 24.000,1.065 24.000,2.375 C24.000,2.375 24.000,16.625 24.000,16.625 C24.000,17.935 22.934,19.000 21.625,19.000 ZM23.000,2.375 C23.000,1.617 22.383,1.000 21.625,1.000 C21.625,1.000 2.375,1.000 2.375,1.000 C1.617,1.000 1.000,1.617 1.000,2.375 C1.000,2.375 1.000,16.625 1.000,16.625 C1.000,17.383 1.617,18.000 2.375,18.000 C2.375,18.000 21.625,18.000 21.625,18.000 C22.383,18.000 23.000,17.383 23.000,16.625 C23.000,16.625 23.000,2.375 23.000,2.375 ZM20.426,14.982 C20.328,15.080 20.200,15.129 20.072,15.129 C19.944,15.129 19.816,15.080 19.719,14.982 C19.719,14.982 14.767,10.031 14.767,10.031 C14.767,10.031 12.353,12.445 12.353,12.445 C12.256,12.542 12.128,12.591 12.000,12.591 C11.872,12.591 11.744,12.542 11.646,12.445 C11.646,12.445 9.361,10.159 9.361,10.159 C9.361,10.159 4.537,14.982 4.537,14.982 C4.440,15.080 4.312,15.129 4.184,15.129 C4.056,15.129 3.928,15.080 3.830,14.982 C3.635,14.787 3.635,14.471 3.830,14.275 C3.830,14.275 8.654,9.452 8.654,9.452 C8.654,9.452 3.750,4.549 3.750,4.549 C3.555,4.353 3.555,4.037 3.750,3.842 C3.946,3.646 4.262,3.646 4.457,3.842 C4.457,3.842 12.000,11.384 12.000,11.384 C12.000,11.384 19.692,3.692 19.692,3.692 C19.888,3.497 20.204,3.497 20.399,3.692 C20.595,3.888 20.595,4.204 20.399,4.399 C20.399,4.399 15.474,9.324 15.474,9.324 C15.474,9.324 20.426,14.275 20.426,14.275 C20.621,14.471 20.621,14.787 20.426,14.982 Z" id="path-1" class="cls-2" fill-rule="evenodd"/>
</svg>
