<svg xmlns="http://www.w3.org/2000/svg" xmlns:xlink="http://www.w3.org/1999/xlink" preserveAspectRatio="xMidYMid" width="26" height="28" viewBox="0 0 26 28">
  <defs>
    <style>

      .cls-2 {
        fill: #5c5c5c;
      }
    </style>
  </defs>
  <path d="M25.684,23.099 C25.593,23.174 25.482,23.211 25.373,23.211 C25.227,23.211 25.083,23.146 24.985,23.023 C24.985,23.023 21.717,18.908 21.717,18.908 C20.541,17.426 20.047,15.501 20.360,13.627 C20.360,13.627 20.456,13.051 20.456,13.051 C20.791,11.057 20.244,9.028 18.956,7.483 C17.668,5.938 15.785,5.052 13.789,5.052 C13.789,5.052 12.067,5.052 12.067,5.052 C10.071,5.052 8.187,5.938 6.900,7.483 C5.612,9.028 5.065,11.057 5.399,13.051 C5.399,13.051 5.496,13.627 5.496,13.627 C5.809,15.501 5.315,17.426 4.139,18.908 C4.139,18.908 0.871,23.023 0.871,23.023 C0.699,23.238 0.385,23.273 0.171,23.099 C-0.043,22.924 -0.077,22.607 0.096,22.390 C0.096,22.390 3.363,18.275 3.363,18.275 C4.361,17.018 4.780,15.385 4.514,13.795 C4.514,13.795 4.418,13.220 4.418,13.220 C4.035,10.933 4.662,8.605 6.139,6.832 C7.259,5.488 8.774,4.581 10.439,4.220 C10.439,4.220 10.439,2.510 10.439,2.510 C10.439,1.130 11.546,0.008 12.908,0.008 C14.309,0.008 15.417,1.130 15.417,2.510 C15.417,2.510 15.417,4.220 15.417,4.220 C17.082,4.581 18.596,5.488 19.717,6.832 C21.194,8.605 21.821,10.933 21.438,13.220 C21.438,13.220 21.342,13.795 21.342,13.795 C21.076,15.385 21.495,17.018 22.493,18.275 C22.493,18.275 25.760,22.390 25.760,22.390 C25.932,22.607 25.899,22.924 25.684,23.099 ZM14.421,2.510 C14.421,1.687 13.760,1.017 12.948,1.017 C12.096,1.017 11.435,1.687 11.435,2.510 C11.435,2.510 11.435,4.043 11.435,4.043 C11.435,4.043 12.067,4.043 12.067,4.043 C12.067,4.043 13.789,4.043 13.789,4.043 C13.789,4.043 14.421,4.043 14.421,4.043 C14.421,4.043 14.421,2.510 14.421,2.510 ZM7.271,3.196 C4.960,4.735 3.395,7.108 2.744,10.058 C2.693,10.293 2.487,10.452 2.259,10.452 C2.223,10.452 2.187,10.448 2.150,10.440 C1.882,10.379 1.713,10.110 1.773,9.838 C2.481,6.627 4.193,4.039 6.723,2.353 C6.954,2.200 7.261,2.264 7.413,2.497 C7.564,2.730 7.500,3.043 7.271,3.196 ZM12.928,20.074 C18.255,20.074 23.917,21.461 23.917,24.032 C23.917,26.603 18.255,27.990 12.928,27.990 C7.601,27.990 1.938,26.603 1.938,24.032 C1.938,21.461 7.601,20.074 12.928,20.074 ZM12.928,21.161 C12.088,21.161 11.296,21.194 10.548,21.251 C10.552,21.278 10.563,21.302 10.563,21.330 C10.563,22.448 11.461,23.358 12.565,23.358 C13.669,23.358 14.567,22.448 14.567,21.330 C14.567,21.287 14.581,21.248 14.591,21.207 C14.056,21.180 13.506,21.161 12.928,21.161 ZM12.928,26.904 C19.072,26.904 22.845,25.231 22.845,24.032 C22.845,23.015 20.124,21.661 15.551,21.273 C15.553,21.292 15.562,21.310 15.562,21.330 C15.562,23.004 14.218,24.367 12.565,24.367 C10.917,24.367 9.576,23.011 9.569,21.343 C5.441,21.807 3.011,23.070 3.011,24.032 C3.011,25.231 6.783,26.904 12.928,26.904 Z" id="path-1" class="cls-2" fill-rule="evenodd"/>
</svg>
